<!--
Created with Chapman Taylor Dynamo SVG exporter
byabear@chapmantaylor.com

Revit Source File:
C:\Users\amagalhaes\Documents\PCA-EML-0100-A00_PCA_amagalhaes.rvt

Date:
22/10/2019 18:16:59
-->

<svg xmlns="http://www.w3.org/2000/svg" class="gen-by-CTA-dyn-Synoptic-for-PowerBI" viewBox=" -1.0 -1.0 1.0 2.0 " transform="scale( 0.95 )">

<style>
polygon {
fill: gainsboro;
stroke: red;
stroke-width: 0.1px;
}
</style>

<polygon id="" points="-0000.050,+0000.016,-0000.050,+0000.017,-0000.043,+0000.017,-0000.043,+0000.012,-0000.055,+0000.012,-0000.055,+0000.012,-0000.059,+0000.012,-0000.059,+0000.017,-0000.055,+0000.017,-0000.055,+0000.016,-0000.055,+0000.016,-0000.055,+0000.017,-0000.051,+0000.017,-0000.051,+0000.016" />
<polygon id="" points="-0000.050,+0000.017,-0000.051,+0000.017,-0000.055,+0000.017,-0000.055,+0000.017,-0000.057,+0000.017,-0000.057,+0000.022,-0000.043,+0000.022,-0000.043,+0000.017" />
<polygon id="" points="-0000.057,+0000.025,-0000.057,+0000.029,-0000.043,+0000.029,-0000.043,+0000.023,-0000.057,+0000.023" />
<polygon id="" points="-0000.057,+0000.029,-0000.057,+0000.025,-0000.059,+0000.025,-0000.061,+0000.025,-0000.061,+0000.029" />
<polygon id="" points="-0000.059,-0000.000,-0000.059,-0000.000,-0000.073,-0000.002,-0000.073,+0000.011,-0000.069,+0000.011,-0000.059,+0000.011,-0000.056,+0000.011,-0000.056,+0000.000" />
<polygon id="" points="-0000.059,-0000.001,-0000.059,-0000.004,-0000.070,-0000.004,-0000.070,-0000.004,-0000.073,-0000.004,-0000.073,-0000.002" />
<polygon id="" points="-0000.060,+0000.019,-0000.066,+0000.019,-0000.066,+0000.022,-0000.060,+0000.022" />
<polygon id="" points="-0000.060,-0000.009,-0000.063,-0000.009,-0000.063,-0000.009,-0000.063,-0000.009,-0000.063,-0000.009,-0000.065,-0000.009,-0000.065,-0000.008,-0000.065,-0000.006,-0000.065,-0000.005,-0000.063,-0000.005,-0000.063,-0000.006,-0000.063,-0000.006,-0000.063,-0000.005,-0000.060,-0000.005" />
<polygon id="" points="-0000.063,+0000.017,-0000.060,+0000.017,-0000.060,+0000.012,-0000.063,+0000.012,-0000.063,+0000.013,-0000.063,+0000.013,-0000.063,+0000.012,-0000.065,+0000.012,-0000.065,+0000.014,-0000.065,+0000.016,-0000.065,+0000.017,-0000.063,+0000.017,-0000.063,+0000.016,-0000.063,+0000.016" />
<polygon id="" points="-0000.064,-0000.012,-0000.060,-0000.012,-0000.060,-0000.014,-0000.061,-0000.014,-0000.061,-0000.015,-0000.062,-0000.015,-0000.062,-0000.015,-0000.063,-0000.015,-0000.063,-0000.015,-0000.063,-0000.014,-0000.063,-0000.014,-0000.063,-0000.015,-0000.064,-0000.015" />
<polygon id="" points="-0000.066,-0000.012,-0000.064,-0000.012,-0000.064,-0000.015,-0000.064,-0000.015,-0000.066,-0000.015" />
<polygon id="" points="-0000.067,+0000.023,-0000.067,+0000.019,-0000.073,+0000.019,-0000.073,+0000.023" />
<polygon id="" points="-0000.070,+0000.025,-0000.070,+0000.029,-0000.061,+0000.029,-0000.061,+0000.025" />
<polygon id="" points="-0000.073,+0000.025,-0000.073,+0000.025,-0000.073,+0000.025,-0000.071,+0000.025,-0000.061,+0000.025,-0000.061,+0000.025,-0000.061,+0000.025,-0000.059,+0000.025,-0000.059,+0000.023,-0000.059,+0000.023,-0000.059,+0000.019,-0000.059,+0000.019,-0000.059,+0000.023,-0000.067,+0000.023,-0000.073,+0000.023,-0000.073,+0000.023,-0000.073,+0000.023,-0000.075,+0000.023,-0000.075,+0000.023,-0000.075,+0000.023,-0000.078,+0000.023,-0000.082,+0000.023,-0000.082,+0000.025,-0000.079,+0000.025" />
<polygon id="" points="-0000.073,+0000.025,-0000.073,+0000.029,-0000.071,+0000.029,-0000.071,+0000.025" />
<polygon id="" points="-0000.073,+0000.025,-0000.079,+0000.025,-0000.079,+0000.029,-0000.073,+0000.029" />
<polygon id="" points="-0000.073,-0000.012,-0000.069,-0000.012,-0000.069,-0000.015,-0000.070,-0000.015,-0000.070,-0000.014,-0000.070,-0000.014,-0000.070,-0000.015,-0000.070,-0000.015,-0000.071,-0000.015,-0000.071,-0000.015,-0000.072,-0000.015,-0000.072,-0000.014,-0000.073,-0000.014" />
<polygon id="" points="-0000.073,-0000.012,-0000.073,-0000.010,-0000.070,-0000.010,-0000.070,-0000.010,-0000.070,-0000.010,-0000.068,-0000.010,-0000.067,-0000.010,-0000.066,-0000.010,-0000.065,-0000.010,-0000.063,-0000.010,-0000.059,-0000.010,-0000.059,-0000.012,-0000.064,-0000.012,-0000.064,-0000.012,-0000.066,-0000.012,-0000.067,-0000.012,-0000.069,-0000.012,-0000.069,-0000.012" />
<polygon id="" points="-0000.073,-0000.016,-0000.073,-0000.022,-0000.077,-0000.022,-0000.077,-0000.016" />
<polygon id="" points="-0000.073,-0000.022,-0000.073,-0000.016,-0000.059,-0000.016,-0000.059,-0000.022" />
<polygon id="" points="-0000.077,+0000.011,-0000.077,+0000.012,-0000.077,+0000.017,-0000.073,+0000.017,-0000.073,+0000.014,-0000.073,+0000.012,-0000.073,+0000.011,-0000.073,+0000.011,-0000.073,+0000.011,-0000.077,+0000.011" />
<polygon id="" points="-0000.077,-0000.010,-0000.077,-0000.009,-0000.077,-0000.009,-0000.077,-0000.005,-0000.077,-0000.004,-0000.077,-0000.004,-0000.073,-0000.004,-0000.073,-0000.004,-0000.073,-0000.004,-0000.073,-0000.007,-0000.073,-0000.010,-0000.073,-0000.010,-0000.073,-0000.012,-0000.077,-0000.012" />
<polygon id="" points="-0000.077,-0000.015,-0000.077,-0000.012,-0000.073,-0000.012,-0000.073,-0000.014,-0000.073,-0000.014,-0000.073,-0000.015" />
<polygon id="" points="-0000.080,+0000.025,-0000.082,+0000.025,-0000.082,+0000.023,-0000.092,+0000.023,-0000.092,+0000.028,-0000.092,+0000.028,-0000.091,+0000.028,-0000.091,+0000.029,-0000.083,+0000.029,-0000.083,+0000.028,-0000.082,+0000.028,-0000.082,+0000.029,-0000.080,+0000.029" />
<polygon id="" points="-0000.086,+0000.016,-0000.086,+0000.017,-0000.082,+0000.017,-0000.082,+0000.016,-0000.082,+0000.016,-0000.082,+0000.017,-0000.078,+0000.017,-0000.078,+0000.016,-0000.077,+0000.016,-0000.077,+0000.017,-0000.077,+0000.017,-0000.077,+0000.012,-0000.078,+0000.012,-0000.078,+0000.011,-0000.078,+0000.011,-0000.078,+0000.011,-0000.078,+0000.011,-0000.078,+0000.011,-0000.079,+0000.011,-0000.079,+0000.011,-0000.079,+0000.011,-0000.079,+0000.011,-0000.081,+0000.011,-0000.081,+0000.011,-0000.081,+0000.011,-0000.081,+0000.011,-0000.081,+0000.011,-0000.081,+0000.011,-0000.081,+0000.011,-0000.081,+0000.011,-0000.081,+0000.011,-0000.081,+0000.012,-0000.082,+0000.012,-0000.082,+0000.011,-0000.082,+0000.011,-0000.082,+0000.011,-0000.082,+0000.011,-0000.082,+0000.011,-0000.083,+0000.011,-0000.083,+0000.011,-0000.083,+0000.011,-0000.083,+0000.011,-0000.084,+0000.011,-0000.084,+0000.011,-0000.084,+0000.011,-0000.084,+0000.011,-0000.085,+0000.011,-0000.085,+0000.011,-0000.085,+0000.011,-0000.085,+0000.011,-0000.086,+0000.011,-0000.086,+0000.011,-0000.086,+0000.011,-0000.086,+0000.011,-0000.086,+0000.011,-0000.086,+0000.012,-0000.086,+0000.012,-0000.086,+0000.016" />
<polygon id="" points="-0000.086,+0000.017,-0000.087,+0000.017,-0000.087,+0000.017,-0000.092,+0000.017,-0000.092,+0000.019,-0000.081,+0000.019,-0000.081,+0000.023,-0000.078,+0000.023,-0000.078,+0000.019,-0000.075,+0000.019,-0000.075,+0000.019,-0000.073,+0000.019,-0000.073,+0000.019,-0000.059,+0000.019,-0000.059,+0000.019,-0000.059,+0000.019,-0000.059,+0000.024,-0000.057,+0000.024,-0000.057,+0000.017,-0000.059,+0000.017,-0000.059,+0000.017,-0000.063,+0000.017,-0000.065,+0000.017,-0000.066,+0000.017,-0000.067,+0000.017,-0000.068,+0000.017,-0000.070,+0000.017,-0000.070,+0000.017,-0000.070,+0000.017,-0000.073,+0000.017,-0000.073,+0000.017,-0000.073,+0000.017,-0000.077,+0000.017,-0000.077,+0000.017,-0000.078,+0000.017,-0000.082,+0000.017,-0000.082,+0000.017" />
<polygon id="" points="-0000.086,+0000.023,-0000.082,+0000.023,-0000.082,+0000.019,-0000.086,+0000.019" />
<polygon id="" points="-0000.086,-0000.010,-0000.086,-0000.009,-0000.082,-0000.009,-0000.082,-0000.010,-0000.082,-0000.010,-0000.082,-0000.009,-0000.078,-0000.009,-0000.078,-0000.010,-0000.077,-0000.010,-0000.077,-0000.012,-0000.077,-0000.012,-0000.077,-0000.015,-0000.077,-0000.022,-0000.092,-0000.022,-0000.092,-0000.010,-0000.092,-0000.010,-0000.092,-0000.009,-0000.091,-0000.009,-0000.087,-0000.009,-0000.087,-0000.010" />
<polygon id="" points="-0000.092,+0000.023,-0000.087,+0000.023,-0000.087,+0000.019,-0000.092,+0000.019" />
<polygon id="" points="-0000.092,-0000.010,-0000.092,-0000.010,-0000.092,-0000.022,-0000.099,-0000.022,-0000.099,-0000.009,-0000.096,-0000.009,-0000.096,-0000.010,-0000.095,-0000.010,-0000.095,-0000.009,-0000.092,-0000.009,-0000.092,-0000.010" />
<polygon id="" points="-0000.104,-0000.005,-0000.104,-0000.005,-0000.104,-0000.004,-0000.104,-0000.004,-0000.104,-0000.004,-0000.103,-0000.004,-0000.103,-0000.004,-0000.103,-0000.004,-0000.103,-0000.004,-0000.102,-0000.004,-0000.102,-0000.004,-0000.102,-0000.004,-0000.102,-0000.004,-0000.101,-0000.004,-0000.101,-0000.004,-0000.101,-0000.004,-0000.101,-0000.004,-0000.100,-0000.004,-0000.100,-0000.004,-0000.100,-0000.004,-0000.100,-0000.005,-0000.100,-0000.005,-0000.100,-0000.004,-0000.099,-0000.004,-0000.099,-0000.004,-0000.099,-0000.004,-0000.099,-0000.004,-0000.099,-0000.004,-0000.099,-0000.004,-0000.098,-0000.004,-0000.098,-0000.004,-0000.098,-0000.004,-0000.098,-0000.004,-0000.097,-0000.004,-0000.097,-0000.004,-0000.097,-0000.004,-0000.097,-0000.004,-0000.096,-0000.004,-0000.096,-0000.004,-0000.096,-0000.004,-0000.096,-0000.005,-0000.095,-0000.005,-0000.095,-0000.004,-0000.095,-0000.004,-0000.095,-0000.004,-0000.094,-0000.004,-0000.094,-0000.004,-0000.094,-0000.004,-0000.094,-0000.004,-0000.093,-0000.004,-0000.093,-0000.004,-0000.093,-0000.004,-0000.093,-0000.004,-0000.093,-0000.004,-0000.092,-0000.004,-0000.092,-0000.004,-0000.092,-0000.004,-0000.092,-0000.004,-0000.092,-0000.004,-0000.091,-0000.004,-0000.091,-0000.004,-0000.091,-0000.004,-0000.091,-0000.004,-0000.091,-0000.004,-0000.091,-0000.005,-0000.090,-0000.005,-0000.090,-0000.004,-0000.090,-0000.004,-0000.090,-0000.004,-0000.090,-0000.004,-0000.090,-0000.004,-0000.090,-0000.004,-0000.090,-0000.004,-0000.090,-0000.004,-0000.090,-0000.004,-0000.088,-0000.004,-0000.088,-0000.004,-0000.088,-0000.004,-0000.088,-0000.004,-0000.087,-0000.004,-0000.087,-0000.004,-0000.087,-0000.004,-0000.087,-0000.004,-0000.087,-0000.004,-0000.087,-0000.005,-0000.086,-0000.005,-0000.086,-0000.004,-0000.086,-0000.004,-0000.086,-0000.004,-0000.086,-0000.004,-0000.086,-0000.004,-0000.085,-0000.004,-0000.085,-0000.004,-0000.085,-0000.004,-0000.085,-0000.004,-0000.084,-0000.004,-0000.084,-0000.004,-0000.084,-0000.004,-0000.084,-0000.004,-0000.083,-0000.004,-0000.083,-0000.004,-0000.083,-0000.004,-0000.083,-0000.004,-0000.082,-0000.004,-0000.082,-0000.004,-0000.082,-0000.004,-0000.082,-0000.004,-0000.082,-0000.004,-0000.082,-0000.005,-0000.081,-0000.005,-0000.081,-0000.004,-0000.081,-0000.004,-0000.081,-0000.004,-0000.081,-0000.004,-0000.081,-0000.004,-0000.081,-0000.004,-0000.081,-0000.004,-0000.081,-0000.004,-0000.081,-0000.004,-0000.080,-0000.004,-0000.080,-0000.004,-0000.080,-0000.004,-0000.080,-0000.004,-0000.079,-0000.004,-0000.079,-0000.004,-0000.079,-0000.004,-0000.079,-0000.004,-0000.078,-0000.004,-0000.078,-0000.004,-0000.078,-0000.004,-0000.078,-0000.004,-0000.078,-0000.004,-0000.078,-0000.005,-0000.077,-0000.005,-0000.077,-0000.009,-0000.078,-0000.009,-0000.082,-0000.009,-0000.082,-0000.009,-0000.086,-0000.009,-0000.087,-0000.009,-0000.091,-0000.009,-0000.091,-0000.009,-0000.104,-0000.009" />
<polygon id="" points="-0000.105,-0000.004,-0000.105,-0000.005,-0000.104,-0000.005,-0000.104,-0000.009,-0000.107,-0000.009,-0000.107,-0000.004,-0000.107,-0000.004,-0000.107,-0000.004,-0000.105,-0000.004,-0000.105,-0000.004" />
<polygon id="" points="-0000.118,+0000.017,-0000.118,+0000.017,-0000.119,+0000.017,-0000.119,+0000.024,-0000.119,+0000.026,-0000.119,+0000.026,-0000.119,+0000.026,-0000.119,+0000.029,-0000.092,+0000.029,-0000.092,+0000.019,-0000.092,+0000.017,-0000.092,+0000.017,-0000.092,+0000.017,-0000.095,+0000.017,-0000.096,+0000.017,-0000.100,+0000.017,-0000.100,+0000.017,-0000.104,+0000.017,-0000.105,+0000.017,-0000.108,+0000.017,-0000.108,+0000.017,-0000.113,+0000.017,-0000.114,+0000.017" />
<polygon id="" points="-0000.122,+0000.011,-0000.122,+0000.012,-0000.123,+0000.012,-0000.123,+0000.011,-0000.123,+0000.011,-0000.123,+0000.011,-0000.123,+0000.011,-0000.123,+0000.011,-0000.124,+0000.011,-0000.124,+0000.011,-0000.124,+0000.011,-0000.124,+0000.011,-0000.126,+0000.011,-0000.126,+0000.011,-0000.126,+0000.011,-0000.126,+0000.011,-0000.126,+0000.011,-0000.126,+0000.011,-0000.126,+0000.012,-0000.126,+0000.017,-0000.126,+0000.017,-0000.126,+0000.019,-0000.126,+0000.024,-0000.119,+0000.024,-0000.119,+0000.017,-0000.118,+0000.017,-0000.118,+0000.016,-0000.118,+0000.016,-0000.118,+0000.017,-0000.114,+0000.017,-0000.114,+0000.016,-0000.113,+0000.016,-0000.113,+0000.017,-0000.108,+0000.017,-0000.108,+0000.016,-0000.108,+0000.016,-0000.108,+0000.017,-0000.105,+0000.017,-0000.105,+0000.016,-0000.104,+0000.016,-0000.104,+0000.017,-0000.100,+0000.017,-0000.100,+0000.016,-0000.100,+0000.016,-0000.100,+0000.017,-0000.096,+0000.017,-0000.096,+0000.016,-0000.095,+0000.016,-0000.095,+0000.017,-0000.092,+0000.017,-0000.092,+0000.016,-0000.092,+0000.016,-0000.092,+0000.017,-0000.092,+0000.017,-0000.087,+0000.017,-0000.087,+0000.012,-0000.087,+0000.012,-0000.087,+0000.011,-0000.087,+0000.011,-0000.087,+0000.011,-0000.087,+0000.011,-0000.087,+0000.011,-0000.088,+0000.011,-0000.088,+0000.011,-0000.088,+0000.011,-0000.088,+0000.011,-0000.090,+0000.011,-0000.090,+0000.011,-0000.090,+0000.011,-0000.090,+0000.011,-0000.090,+0000.011,-0000.090,+0000.011,-0000.090,+0000.011,-0000.090,+0000.011,-0000.090,+0000.011,-0000.090,+0000.012,-0000.091,+0000.012,-0000.091,+0000.011,-0000.091,+0000.011,-0000.091,+0000.011,-0000.091,+0000.011,-0000.091,+0000.011,-0000.092,+0000.011,-0000.092,+0000.011,-0000.092,+0000.011,-0000.092,+0000.011,-0000.092,+0000.011,-0000.093,+0000.011,-0000.093,+0000.011,-0000.093,+0000.011,-0000.093,+0000.011,-0000.094,+0000.011,-0000.094,+0000.011,-0000.094,+0000.011,-0000.094,+0000.011,-0000.095,+0000.011,-0000.095,+0000.011,-0000.095,+0000.011,-0000.095,+0000.012,-0000.096,+0000.012,-0000.096,+0000.011,-0000.096,+0000.011,-0000.096,+0000.011,-0000.097,+0000.011,-0000.097,+0000.011,-0000.097,+0000.011,-0000.097,+0000.011,-0000.098,+0000.011,-0000.098,+0000.011,-0000.098,+0000.011,-0000.098,+0000.011,-0000.099,+0000.011,-0000.099,+0000.011,-0000.099,+0000.011,-0000.099,+0000.011,-0000.099,+0000.011,-0000.099,+0000.011,-0000.100,+0000.011,-0000.100,+0000.012,-0000.100,+0000.012,-0000.100,+0000.011,-0000.100,+0000.011,-0000.100,+0000.011,-0000.101,+0000.011,-0000.101,+0000.011,-0000.101,+0000.011,-0000.101,+0000.011,-0000.102,+0000.011,-0000.102,+0000.011,-0000.102,+0000.011,-0000.102,+0000.011,-0000.103,+0000.011,-0000.103,+0000.011,-0000.103,+0000.011,-0000.103,+0000.011,-0000.104,+0000.011,-0000.104,+0000.011,-0000.104,+0000.011,-0000.104,+0000.012,-0000.105,+0000.012,-0000.105,+0000.011,-0000.105,+0000.011,-0000.105,+0000.011,-0000.106,+0000.011,-0000.106,+0000.011,-0000.106,+0000.011,-0000.106,+0000.011,-0000.107,+0000.011,-0000.107,+0000.011,-0000.107,+0000.011,-0000.107,+0000.011,-0000.107,+0000.011,-0000.108,+0000.011,-0000.108,+0000.011,-0000.108,+0000.011,-0000.108,+0000.011,-0000.108,+0000.011,-0000.108,+0000.011,-0000.108,+0000.011,-0000.108,+0000.011,-0000.108,+0000.011,-0000.108,+0000.012,-0000.109,+0000.012,-0000.109,+0000.011,-0000.109,+0000.011,-0000.109,+0000.011,-0000.109,+0000.011,-0000.109,+0000.011,-0000.110,+0000.011,-0000.110,+0000.011,-0000.110,+0000.011,-0000.110,+0000.011,-0000.112,+0000.011,-0000.112,+0000.011,-0000.112,+0000.011,-0000.112,+0000.011,-0000.113,+0000.011,-0000.113,+0000.011,-0000.113,+0000.011,-0000.113,+0000.011,-0000.113,+0000.011,-0000.113,+0000.012,-0000.114,+0000.012,-0000.114,+0000.011,-0000.114,+0000.011,-0000.114,+0000.011,-0000.114,+0000.011,-0000.114,+0000.011,-0000.115,+0000.011,-0000.115,+0000.011,-0000.115,+0000.011,-0000.115,+0000.011,-0000.116,+0000.011,-0000.116,+0000.011,-0000.116,+0000.011,-0000.116,+0000.011,-0000.117,+0000.011,-0000.117,+0000.011,-0000.117,+0000.011,-0000.117,+0000.011,-0000.117,+0000.011,-0000.117,+0000.011,-0000.117,+0000.011,-0000.117,+0000.011,-0000.117,+0000.011,-0000.117,+0000.012,-0000.118,+0000.012,-0000.118,+0000.011,-0000.118,+0000.011,-0000.118,+0000.011,-0000.118,+0000.011,-0000.118,+0000.011,-0000.119,+0000.011,-0000.119,+0000.011,-0000.119,+0000.011,-0000.119,+0000.011,-0000.120,+0000.011,-0000.120,+0000.011,-0000.120,+0000.011,-0000.120,+0000.011,-0000.121,+0000.011,-0000.121,+0000.011,-0000.121,+0000.011,-0000.121,+0000.011,-0000.122,+0000.011,-0000.122,+0000.011,-0000.122,+0000.011,-0000.122,+0000.011" />
<polygon id="" points="-0000.122,-0000.005,-0000.122,-0000.004,-0000.122,-0000.004,-0000.122,-0000.004,-0000.122,-0000.004,-0000.122,-0000.004,-0000.121,-0000.004,-0000.121,-0000.004,-0000.121,-0000.004,-0000.121,-0000.004,-0000.120,-0000.004,-0000.120,-0000.004,-0000.120,-0000.004,-0000.120,-0000.004,-0000.119,-0000.004,-0000.119,-0000.004,-0000.119,-0000.004,-0000.119,-0000.004,-0000.118,-0000.004,-0000.118,-0000.004,-0000.118,-0000.004,-0000.118,-0000.004,-0000.118,-0000.004,-0000.118,-0000.005,-0000.117,-0000.005,-0000.117,-0000.004,-0000.117,-0000.004,-0000.117,-0000.004,-0000.117,-0000.004,-0000.117,-0000.004,-0000.117,-0000.004,-0000.117,-0000.004,-0000.117,-0000.004,-0000.117,-0000.004,-0000.116,-0000.004,-0000.116,-0000.004,-0000.116,-0000.004,-0000.116,-0000.004,-0000.115,-0000.004,-0000.115,-0000.004,-0000.115,-0000.004,-0000.115,-0000.004,-0000.114,-0000.004,-0000.114,-0000.004,-0000.114,-0000.004,-0000.114,-0000.004,-0000.114,-0000.004,-0000.114,-0000.005,-0000.113,-0000.005,-0000.113,-0000.004,-0000.113,-0000.004,-0000.113,-0000.004,-0000.113,-0000.004,-0000.113,-0000.004,-0000.112,-0000.004,-0000.112,-0000.004,-0000.112,-0000.004,-0000.112,-0000.004,-0000.110,-0000.004,-0000.110,-0000.004,-0000.110,-0000.004,-0000.110,-0000.004,-0000.109,-0000.004,-0000.109,-0000.004,-0000.109,-0000.004,-0000.109,-0000.004,-0000.109,-0000.004,-0000.109,-0000.005,-0000.108,-0000.005,-0000.108,-0000.004,-0000.108,-0000.004,-0000.108,-0000.004,-0000.108,-0000.004,-0000.108,-0000.004,-0000.108,-0000.004,-0000.108,-0000.004,-0000.108,-0000.004,-0000.108,-0000.004,-0000.108,-0000.022,-0000.126,-0000.022,-0000.126,-0000.016,-0000.126,-0000.016,-0000.126,-0000.014,-0000.126,-0000.014,-0000.126,-0000.012,-0000.126,-0000.012,-0000.126,-0000.010,-0000.126,-0000.010,-0000.126,-0000.004,-0000.126,-0000.004,-0000.126,-0000.004,-0000.126,-0000.004,-0000.126,-0000.004,-0000.126,-0000.004,-0000.124,-0000.004,-0000.124,-0000.004,-0000.124,-0000.004,-0000.124,-0000.004,-0000.123,-0000.004,-0000.123,-0000.004,-0000.123,-0000.004,-0000.123,-0000.004,-0000.123,-0000.004,-0000.123,-0000.005" />
<polygon id="" points="-0000.127,+0000.017,-0000.127,+0000.012,-0000.129,+0000.012,-0000.129,+0000.017" />
<polygon id="" points="-0000.127,+0000.029,-0000.127,+0000.030,-0000.127,+0000.033,-0000.119,+0000.033,-0000.119,+0000.029,-0000.122,+0000.029,-0000.122,+0000.029,-0000.123,+0000.029" />
<polygon id="" points="-0000.127,-0000.009,-0000.129,-0000.009,-0000.129,-0000.005,-0000.127,-0000.005" />
<polygon id="" points="-0000.127,-0000.012,-0000.127,-0000.014,-0000.128,-0000.014,-0000.128,-0000.015,-0000.129,-0000.015,-0000.129,-0000.015,-0000.130,-0000.015,-0000.130,-0000.015,-0000.130,-0000.014,-0000.130,-0000.014,-0000.130,-0000.015,-0000.131,-0000.015,-0000.131,-0000.012" />
<polygon id="" points="-0000.130,-0000.009,-0000.132,-0000.009,-0000.132,-0000.008,-0000.132,-0000.006,-0000.132,-0000.005,-0000.130,-0000.005" />
<polygon id="" points="-0000.132,+0000.017,-0000.130,+0000.017,-0000.130,+0000.012,-0000.132,+0000.012,-0000.132,+0000.014,-0000.132,+0000.016" />
<polygon id="" points="-0000.133,-0000.015,-0000.136,-0000.015,-0000.136,-0000.012,-0000.133,-0000.012" />
<polygon id="" points="-0000.137,+0000.017,-0000.135,+0000.017,-0000.135,+0000.016,-0000.135,+0000.016,-0000.135,+0000.015,-0000.137,+0000.015" />
<polygon id="" points="-0000.140,+0000.029,-0000.140,+0000.029,-0000.140,+0000.029,-0000.140,+0000.029,-0000.140,+0000.029,-0000.140,+0000.030,-0000.139,+0000.030,-0000.139,+0000.030,-0000.139,+0000.030,-0000.139,+0000.030,-0000.137,+0000.030,-0000.137,+0000.030,-0000.137,+0000.030,-0000.137,+0000.030,-0000.136,+0000.030,-0000.136,+0000.029,-0000.136,+0000.029,-0000.136,+0000.029,-0000.136,+0000.029,-0000.136,+0000.029,-0000.135,+0000.029,-0000.135,+0000.029,-0000.135,+0000.029,-0000.135,+0000.029,-0000.135,+0000.029,-0000.135,+0000.030,-0000.135,+0000.030,-0000.135,+0000.030,-0000.135,+0000.030,-0000.135,+0000.030,-0000.133,+0000.030,-0000.133,+0000.030,-0000.133,+0000.030,-0000.133,+0000.030,-0000.132,+0000.030,-0000.132,+0000.029,-0000.132,+0000.029,-0000.132,+0000.029,-0000.132,+0000.029,-0000.132,+0000.029,-0000.131,+0000.029,-0000.131,+0000.029,-0000.131,+0000.029,-0000.131,+0000.029,-0000.131,+0000.029,-0000.131,+0000.030,-0000.130,+0000.030,-0000.130,+0000.030,-0000.130,+0000.030,-0000.130,+0000.030,-0000.128,+0000.030,-0000.128,+0000.030,-0000.128,+0000.030,-0000.128,+0000.030,-0000.128,+0000.030,-0000.128,+0000.029,-0000.122,+0000.029,-0000.122,+0000.026,-0000.119,+0000.026,-0000.119,+0000.024,-0000.126,+0000.024,-0000.126,+0000.019,-0000.129,+0000.019,-0000.129,+0000.023,-0000.129,+0000.023,-0000.129,+0000.019,-0000.136,+0000.019,-0000.136,+0000.023,-0000.136,+0000.023,-0000.136,+0000.019,-0000.141,+0000.019,-0000.141,+0000.023,-0000.141,+0000.023,-0000.141,+0000.024,-0000.141,+0000.024,-0000.141,+0000.024,-0000.141,+0000.024,-0000.141,+0000.026,-0000.141,+0000.026,-0000.141,+0000.026,-0000.141,+0000.026,-0000.141,+0000.027,-0000.141,+0000.027,-0000.141,+0000.027,-0000.141,+0000.027,-0000.141,+0000.028,-0000.141,+0000.028,-0000.141,+0000.028,-0000.141,+0000.028,-0000.141,+0000.029" />
<polygon id="" points="-0000.140,-0000.022,-0000.141,-0000.022,-0000.141,-0000.017,-0000.141,-0000.017,-0000.141,-0000.016,-0000.136,-0000.016,-0000.136,-0000.016,-0000.136,-0000.016,-0000.136,-0000.016,-0000.127,-0000.016,-0000.127,-0000.022,-0000.131,-0000.022,-0000.131,-0000.020,-0000.131,-0000.020,-0000.131,-0000.022,-0000.140,-0000.022,-0000.140,-0000.018,-0000.137,-0000.018,-0000.137,-0000.017,-0000.140,-0000.017,-0000.140,-0000.022" />
<polygon id="" points="-0000.141,+0000.011,-0000.146,+0000.011,-0000.146,+0000.012,-0000.146,+0000.016,-0000.146,+0000.017,-0000.141,+0000.017,-0000.141,+0000.014" />
<polygon id="" points="-0000.141,+0000.017,-0000.141,+0000.019,-0000.136,+0000.019,-0000.136,+0000.019,-0000.129,+0000.019,-0000.129,+0000.019,-0000.127,+0000.019,-0000.127,+0000.017,-0000.130,+0000.017,-0000.132,+0000.017,-0000.133,+0000.017,-0000.134,+0000.017,-0000.135,+0000.017,-0000.138,+0000.017,-0000.138,+0000.017" />
<polygon id="" points="-0000.141,-0000.010,-0000.141,-0000.010,-0000.141,-0000.010,-0000.141,-0000.012,-0000.141,-0000.012,-0000.142,-0000.012,-0000.143,-0000.012,-0000.144,-0000.012,-0000.145,-0000.012,-0000.145,-0000.010,-0000.145,-0000.010,-0000.145,-0000.009,-0000.146,-0000.009,-0000.146,-0000.005,-0000.145,-0000.005,-0000.145,-0000.004,-0000.141,-0000.004,-0000.141,-0000.007" />
<polygon id="" points="-0000.141,-0000.012,-0000.136,-0000.012,-0000.136,-0000.015,-0000.137,-0000.015,-0000.137,-0000.014,-0000.137,-0000.014,-0000.137,-0000.015,-0000.137,-0000.015,-0000.138,-0000.015,-0000.138,-0000.015,-0000.139,-0000.015,-0000.139,-0000.014,-0000.141,-0000.014,-0000.141,-0000.012" />
<polygon id="" points="-0000.141,-0000.012,-0000.141,-0000.010,-0000.138,-0000.010,-0000.138,-0000.010,-0000.135,-0000.010,-0000.134,-0000.010,-0000.133,-0000.010,-0000.132,-0000.010,-0000.130,-0000.010,-0000.127,-0000.010,-0000.127,-0000.012,-0000.131,-0000.012,-0000.133,-0000.012,-0000.136,-0000.012,-0000.136,-0000.012" />
<polygon id="" points="-0000.141,-0000.017,-0000.141,-0000.017,-0000.141,-0000.022,-0000.146,-0000.022,-0000.146,-0000.017" />
<polygon id="" points="-0000.143,-0000.012,-0000.142,-0000.012,-0000.142,-0000.012,-0000.141,-0000.012,-0000.141,-0000.014,-0000.141,-0000.014,-0000.141,-0000.016,-0000.141,-0000.016,-0000.143,-0000.016" />
<polygon id="" points="-0000.144,-0000.012,-0000.143,-0000.012,-0000.143,-0000.016,-0000.146,-0000.016,-0000.146,-0000.012,-0000.144,-0000.012" />
<polygon id="" points="-0000.145,-0000.012,-0000.146,-0000.012,-0000.146,-0000.012,-0000.146,-0000.016,-0000.146,-0000.017,-0000.146,-0000.017,-0000.146,-0000.022,-0000.153,-0000.022,-0000.153,-0000.020,-0000.153,-0000.012,-0000.151,-0000.012,-0000.151,-0000.010,-0000.145,-0000.010" />
<polygon id="" points="-0000.146,-0000.017,-0000.146,-0000.016,-0000.143,-0000.016,-0000.141,-0000.016,-0000.141,-0000.017" />
<polygon id="" points="-0000.171,-0000.020,-0000.171,-0000.010,-0000.153,-0000.010,-0000.153,-0000.012,-0000.153,-0000.020" />
<polygon id="" points="-0000.171,-0000.022,-0000.171,-0000.020,-0000.153,-0000.020,-0000.153,-0000.022" />
<polygon id="" points="-0000.178,-0000.012,-0000.178,-0000.015,-0000.183,-0000.015,-0000.183,-0000.012" />
<polygon id="" points="-0000.178,-0000.012,-0000.179,-0000.012,-0000.179,-0000.010,-0000.171,-0000.010,-0000.171,-0000.010,-0000.171,-0000.020,-0000.171,-0000.022,-0000.178,-0000.022" />
<polygon id="" points="-0000.179,-0000.012,-0000.183,-0000.012,-0000.183,-0000.012,-0000.183,-0000.010,-0000.183,-0000.010,-0000.183,-0000.010,-0000.183,-0000.007,-0000.183,-0000.004,-0000.179,-0000.004,-0000.179,-0000.005,-0000.178,-0000.005,-0000.178,-0000.009,-0000.179,-0000.009,-0000.179,-0000.010,-0000.179,-0000.010,-0000.179,-0000.010" />
<polygon id="" points="-0000.183,+0000.008,-0000.183,+0000.008,-0000.183,+0000.011,-0000.178,+0000.011,-0000.178,+0000.011,-0000.168,+0000.011,-0000.167,+0000.011,-0000.157,+0000.011,-0000.157,+0000.011,-0000.157,+0000.011,-0000.156,+0000.011,-0000.146,+0000.011,-0000.146,+0000.011,-0000.141,+0000.011,-0000.141,+0000.011,-0000.141,+0000.011,-0000.138,+0000.011,-0000.138,+0000.011,-0000.126,+0000.011,-0000.126,+0000.011,-0000.126,+0000.011,-0000.124,+0000.011,-0000.124,+0000.011,-0000.123,+0000.011,-0000.122,+0000.011,-0000.121,+0000.011,-0000.121,+0000.011,-0000.120,+0000.011,-0000.120,+0000.011,-0000.119,+0000.011,-0000.119,+0000.011,-0000.118,+0000.011,-0000.117,+0000.011,-0000.117,+0000.011,-0000.117,+0000.011,-0000.116,+0000.011,-0000.116,+0000.011,-0000.115,+0000.011,-0000.115,+0000.011,-0000.114,+0000.011,-0000.113,+0000.011,-0000.113,+0000.011,-0000.112,+0000.011,-0000.112,+0000.011,-0000.110,+0000.011,-0000.110,+0000.011,-0000.109,+0000.011,-0000.108,+0000.011,-0000.108,+0000.011,-0000.107,+0000.011,-0000.107,-0000.004,-0000.108,-0000.004,-0000.108,-0000.004,-0000.108,-0000.004,-0000.109,-0000.004,-0000.110,-0000.004,-0000.110,-0000.004,-0000.112,-0000.004,-0000.112,-0000.004,-0000.113,-0000.004,-0000.114,-0000.004,-0000.115,-0000.004,-0000.115,-0000.004,-0000.116,-0000.004,-0000.116,-0000.004,-0000.117,-0000.004,-0000.117,-0000.004,-0000.117,-0000.004,-0000.118,-0000.004,-0000.119,-0000.004,-0000.119,-0000.004,-0000.120,-0000.004,-0000.120,-0000.004,-0000.121,-0000.004,-0000.121,-0000.004,-0000.122,-0000.004,-0000.123,-0000.004,-0000.124,-0000.004,-0000.124,-0000.004,-0000.126,-0000.004,-0000.126,-0000.004,-0000.126,-0000.004,-0000.138,-0000.004,-0000.138,-0000.004,-0000.141,-0000.004,-0000.141,-0000.004,-0000.141,-0000.004,-0000.145,-0000.004,-0000.146,-0000.004,-0000.156,-0000.004,-0000.157,-0000.004,-0000.157,-0000.004,-0000.157,-0000.004,-0000.167,-0000.004,-0000.168,-0000.004,-0000.178,-0000.004,-0000.179,-0000.004,-0000.183,-0000.004,-0000.183,-0000.004,-0000.183,-0000.004,-0000.183,-0000.001,-0000.183,-0000.001" />
<polygon id="" points="-0000.183,+0000.011,-0000.183,+0000.011,-0000.183,+0000.014,-0000.183,+0000.017,-0000.178,+0000.017,-0000.178,+0000.016,-0000.178,+0000.012,-0000.178,+0000.011" />
<polygon id="" points="-0000.183,+0000.019,-0000.183,+0000.017,-0000.186,+0000.017,-0000.186,+0000.017,-0000.189,+0000.017,-0000.190,+0000.017,-0000.191,+0000.017,-0000.192,+0000.017,-0000.194,+0000.017,-0000.195,+0000.017,-0000.195,+0000.019,-0000.193,+0000.019,-0000.191,+0000.019,-0000.188,+0000.019,-0000.188,+0000.019" />
<polygon id="" points="-0000.183,+0000.019,-0000.188,+0000.019,-0000.188,+0000.022,-0000.187,+0000.022,-0000.187,+0000.021,-0000.187,+0000.021,-0000.187,+0000.022,-0000.187,+0000.023,-0000.186,+0000.023,-0000.186,+0000.022,-0000.185,+0000.022,-0000.185,+0000.021,-0000.183,+0000.021" />
<polygon id="" points="-0000.183,-0000.010,-0000.183,-0000.012,-0000.188,-0000.012,-0000.188,-0000.012,-0000.191,-0000.012,-0000.193,-0000.012,-0000.195,-0000.012,-0000.195,-0000.010,-0000.194,-0000.010,-0000.192,-0000.010,-0000.191,-0000.010,-0000.190,-0000.010,-0000.189,-0000.010,-0000.186,-0000.010,-0000.186,-0000.010" />
<polygon id="" points="-0000.183,-0000.012,-0000.183,-0000.014,-0000.185,-0000.014,-0000.185,-0000.015,-0000.186,-0000.015,-0000.186,-0000.015,-0000.187,-0000.015,-0000.187,-0000.015,-0000.187,-0000.014,-0000.187,-0000.014,-0000.187,-0000.015,-0000.188,-0000.015,-0000.188,-0000.012" />
<polygon id="" points="-0000.184,+0000.029,-0000.184,+0000.029,-0000.183,+0000.029,-0000.183,+0000.028,-0000.183,+0000.028,-0000.183,+0000.028,-0000.183,+0000.028,-0000.183,+0000.027,-0000.183,+0000.027,-0000.183,+0000.027,-0000.183,+0000.027,-0000.183,+0000.026,-0000.183,+0000.026,-0000.183,+0000.026,-0000.183,+0000.026,-0000.183,+0000.024,-0000.183,+0000.024,-0000.183,+0000.024,-0000.183,+0000.024,-0000.183,+0000.023,-0000.184,+0000.023,-0000.185,+0000.023,-0000.186,+0000.023,-0000.186,+0000.025,-0000.197,+0000.025,-0000.197,+0000.029,-0000.187,+0000.029,-0000.187,+0000.029,-0000.187,+0000.029,-0000.187,+0000.030,-0000.187,+0000.030,-0000.187,+0000.030,-0000.187,+0000.030,-0000.187,+0000.030,-0000.185,+0000.030,-0000.185,+0000.030,-0000.185,+0000.030,-0000.185,+0000.030,-0000.184,+0000.030,-0000.184,+0000.029,-0000.184,+0000.029,-0000.184,+0000.029" />
<polygon id="" points="-0000.188,-0000.015,-0000.191,-0000.015,-0000.191,-0000.012,-0000.188,-0000.012" />
<polygon id="" points="-0000.191,+0000.011,-0000.191,-0000.004,-0000.196,-0000.004,-0000.196,-0000.002,-0000.196,+0000.011" />
<polygon id="" points="-0000.191,+0000.023,-0000.188,+0000.023,-0000.188,+0000.019,-0000.191,+0000.019" />
<polygon id="" points="-0000.192,-0000.009,-0000.194,-0000.009,-0000.194,-0000.005,-0000.192,-0000.005,-0000.192,-0000.006,-0000.192,-0000.008" />
<polygon id="" points="-0000.194,+0000.017,-0000.192,+0000.017,-0000.192,+0000.016,-0000.192,+0000.014,-0000.192,+0000.012,-0000.194,+0000.012" />
<polygon id="" points="-0000.195,-0000.009,-0000.197,-0000.009,-0000.197,-0000.005,-0000.195,-0000.005,-0000.195,-0000.009,-0000.195,-0000.009" />
<polygon id="" points="-0000.197,+0000.017,-0000.195,+0000.017,-0000.195,+0000.017,-0000.195,+0000.012,-0000.197,+0000.012" />
<polygon id="" points="-0000.197,+0000.019,-0000.197,+0000.021,-0000.196,+0000.021,-0000.196,+0000.022,-0000.195,+0000.022,-0000.195,+0000.023,-0000.194,+0000.023,-0000.194,+0000.022,-0000.194,+0000.021,-0000.194,+0000.021,-0000.194,+0000.022,-0000.193,+0000.022,-0000.193,+0000.019,-0000.195,+0000.019" />
<polygon id="" points="-0000.197,+0000.023,-0000.197,+0000.024,-0000.186,+0000.024,-0000.186,+0000.023,-0000.186,+0000.023,-0000.186,+0000.023,-0000.187,+0000.023,-0000.187,+0000.023,-0000.188,+0000.023,-0000.188,+0000.023,-0000.191,+0000.023,-0000.193,+0000.023,-0000.193,+0000.023,-0000.194,+0000.023,-0000.195,+0000.023,-0000.196,+0000.023,-0000.196,+0000.023" />
<polygon id="" points="-0000.197,-0000.014,-0000.197,-0000.012,-0000.195,-0000.012,-0000.195,-0000.012,-0000.193,-0000.012,-0000.193,-0000.015,-0000.194,-0000.015,-0000.194,-0000.014,-0000.194,-0000.014,-0000.194,-0000.015,-0000.194,-0000.015,-0000.195,-0000.015,-0000.195,-0000.015,-0000.196,-0000.015,-0000.196,-0000.014" />
<polygon id="" points="-0000.198,-0000.012,-0000.198,-0000.012,-0000.198,-0000.012,-0000.201,-0000.012,-0000.201,-0000.010,-0000.198,-0000.010,-0000.198,-0000.010,-0000.198,-0000.010,-0000.195,-0000.010,-0000.195,-0000.012" />
<polygon id="" points="-0000.198,-0000.016,-0000.188,-0000.016,-0000.188,-0000.016,-0000.188,-0000.016,-0000.188,-0000.016,-0000.178,-0000.016,-0000.178,-0000.022,-0000.185,-0000.022,-0000.185,-0000.021,-0000.186,-0000.021,-0000.186,-0000.022,-0000.201,-0000.022,-0000.201,-0000.014,-0000.198,-0000.014" />
<polygon id="" points="-0000.199,+0000.017,-0000.198,+0000.017,-0000.198,+0000.012,-0000.201,+0000.012,-0000.201,+0000.017" />
<polygon id="" points="-0000.199,+0000.017,-0000.199,+0000.019,-0000.198,+0000.019,-0000.198,+0000.019,-0000.195,+0000.019,-0000.195,+0000.017,-0000.197,+0000.017,-0000.198,+0000.017" />
<polygon id="" points="-0000.199,+0000.023,-0000.201,+0000.023,-0000.201,+0000.029,-0000.198,+0000.029,-0000.198,+0000.019,-0000.199,+0000.019" />
<polygon id="" points="-0000.201,+0000.023,-0000.199,+0000.023,-0000.199,+0000.019,-0000.199,+0000.017,-0000.199,+0000.017,-0000.201,+0000.017" />
<polygon id="" points="-0000.201,-0000.008,-0000.198,-0000.008,-0000.198,-0000.010,-0000.201,-0000.010" />
<polygon id="" points="-0000.201,-0000.012,-0000.198,-0000.012,-0000.198,-0000.014,-0000.201,-0000.014" />
<polygon id="555" points="-0000.201,+0000.011,-0000.197,+0000.011,-0000.197,+0000.011,-0000.196,+0000.011,-0000.196,-0000.002,-0000.201,-0000.002,-0000.201,-0000.002,-0000.201,-0000.001,-0000.201,-0000.001,-0000.201,-0000.001,-0000.201,-0000.001,-0000.201,+0000.010,-0000.201,+0000.010,-0000.201,+0000.010,-0000.201,+0000.011,-0000.201,+0000.011" />
<polygon id="556" points="-0000.198,-0000.004,-0000.198,-0000.008,-0000.201,-0000.008,-0000.201,-0000.002,-0000.201,-0000.002,-0000.196,-0000.002,-0000.196,-0000.004" />
<polygon id="557" points="-0000.107,-0000.009,-0000.105,-0000.009,-0000.105,-0000.010,-0000.104,-0000.010,-0000.104,-0000.009,-0000.100,-0000.009,-0000.100,-0000.010,-0000.100,-0000.010,-0000.100,-0000.009,-0000.099,-0000.009,-0000.099,-0000.022,-0000.107,-0000.022" />
<polygon id="562" points="-0000.187,-0000.009,-0000.189,-0000.009,-0000.189,-0000.009,-0000.189,-0000.008,-0000.189,-0000.008,-0000.187,-0000.008" />
<polygon id="563" points="-0000.189,+0000.017,-0000.187,+0000.017,-0000.187,+0000.015,-0000.189,+0000.015,-0000.189,+0000.016,-0000.189,+0000.016" />
<polygon id="564" points="-0000.135,-0000.009,-0000.137,-0000.009,-0000.137,-0000.008,-0000.135,-0000.008,-0000.135,-0000.008,-0000.135,-0000.009" />
<polygon id="593" points="-0000.068,-0000.009,-0000.070,-0000.009,-0000.070,-0000.007,-0000.067,-0000.007,-0000.067,-0000.007,-0000.065,-0000.007,-0000.065,-0000.008,-0000.066,-0000.008,-0000.067,-0000.008,-0000.068,-0000.008" />
<polygon id="594" points="-0000.070,+0000.017,-0000.068,+0000.017,-0000.068,+0000.015,-0000.067,+0000.015,-0000.066,+0000.015,-0000.065,+0000.015,-0000.065,+0000.014,-0000.067,+0000.014,-0000.067,+0000.014,-0000.069,+0000.014,-0000.070,+0000.014" />
<polygon id="595" points="-0000.069,-0000.012,-0000.067,-0000.012,-0000.067,-0000.015,-0000.069,-0000.015,-0000.069,-0000.015" />
<polygon id="617" points="-0000.183,+0000.029,-0000.183,+0000.029,-0000.183,+0000.029,-0000.183,+0000.029,-0000.183,+0000.029,-0000.183,+0000.029,-0000.183,+0000.030,-0000.182,+0000.030,-0000.182,+0000.030,-0000.182,+0000.030,-0000.182,+0000.030,-0000.181,+0000.030,-0000.181,+0000.030,-0000.181,+0000.030,-0000.181,+0000.030,-0000.180,+0000.030,-0000.180,+0000.030,-0000.180,+0000.030,-0000.180,+0000.030,-0000.179,+0000.030,-0000.179,+0000.029,-0000.178,+0000.029,-0000.178,+0000.029,-0000.178,+0000.029,-0000.178,+0000.029,-0000.178,+0000.029,-0000.178,+0000.030,-0000.177,+0000.030,-0000.177,+0000.030,-0000.177,+0000.030,-0000.177,+0000.030,-0000.175,+0000.030,-0000.175,+0000.030,-0000.175,+0000.030,-0000.175,+0000.030,-0000.174,+0000.030,-0000.174,+0000.030,-0000.174,+0000.030,-0000.174,+0000.030,-0000.173,+0000.030,-0000.173,+0000.030,-0000.173,+0000.030,-0000.173,+0000.030,-0000.172,+0000.030,-0000.172,+0000.030,-0000.172,+0000.030,-0000.172,+0000.030,-0000.171,+0000.030,-0000.171,+0000.030,-0000.171,+0000.030,-0000.171,+0000.030,-0000.170,+0000.030,-0000.170,+0000.030,-0000.170,+0000.030,-0000.170,+0000.030,-0000.169,+0000.030,-0000.169,+0000.030,-0000.169,+0000.030,-0000.169,+0000.030,-0000.168,+0000.030,-0000.168,+0000.030,-0000.168,+0000.030,-0000.168,+0000.030,-0000.167,+0000.030,-0000.167,+0000.030,-0000.167,+0000.030,-0000.167,+0000.030,-0000.166,+0000.030,-0000.166,+0000.030,-0000.166,+0000.030,-0000.166,+0000.030,-0000.165,+0000.030,-0000.165,+0000.030,-0000.165,+0000.030,-0000.165,+0000.030,-0000.163,+0000.030,-0000.163,+0000.030,-0000.163,+0000.030,-0000.163,+0000.030,-0000.162,+0000.030,-0000.162,+0000.030,-0000.162,+0000.030,-0000.162,+0000.030,-0000.162,+0000.030,-0000.162,+0000.030,-0000.162,+0000.030,-0000.162,+0000.030,-0000.161,+0000.030,-0000.161,+0000.030,-0000.161,+0000.030,-0000.161,+0000.030,-0000.159,+0000.030,-0000.159,+0000.030,-0000.159,+0000.030,-0000.159,+0000.030,-0000.158,+0000.030,-0000.158,+0000.030,-0000.158,+0000.030,-0000.158,+0000.030,-0000.157,+0000.030,-0000.157,+0000.030,-0000.157,+0000.030,-0000.157,+0000.029,-0000.157,+0000.029,-0000.157,+0000.029,-0000.157,+0000.029,-0000.157,+0000.030,-0000.156,+0000.030,-0000.156,+0000.029,-0000.157,+0000.029,-0000.157,+0000.029,-0000.156,+0000.029,-0000.156,+0000.030,-0000.156,+0000.030,-0000.156,+0000.030,-0000.155,+0000.030,-0000.155,+0000.030,-0000.155,+0000.030,-0000.155,+0000.030,-0000.154,+0000.030,-0000.154,+0000.030,-0000.154,+0000.030,-0000.154,+0000.030,-0000.153,+0000.030,-0000.153,+0000.030,-0000.153,+0000.030,-0000.153,+0000.030,-0000.152,+0000.030,-0000.152,+0000.030,-0000.152,+0000.030,-0000.152,+0000.030,-0000.151,+0000.030,-0000.151,+0000.030,-0000.151,+0000.030,-0000.151,+0000.030,-0000.150,+0000.030,-0000.150,+0000.030,-0000.150,+0000.030,-0000.150,+0000.030,-0000.149,+0000.030,-0000.149,+0000.030,-0000.149,+0000.030,-0000.149,+0000.030,-0000.147,+0000.030,-0000.147,+0000.030,-0000.147,+0000.030,-0000.147,+0000.030,-0000.146,+0000.030,-0000.146,+0000.029,-0000.146,+0000.029,-0000.146,+0000.029,-0000.146,+0000.029,-0000.146,+0000.029,-0000.145,+0000.029,-0000.145,+0000.030,-0000.144,+0000.030,-0000.144,+0000.030,-0000.144,+0000.030,-0000.144,+0000.030,-0000.143,+0000.030,-0000.143,+0000.030,-0000.143,+0000.030,-0000.143,+0000.030,-0000.142,+0000.030,-0000.142,+0000.030,-0000.142,+0000.030,-0000.142,+0000.030,-0000.141,+0000.030,-0000.141,+0000.029,-0000.141,+0000.029,-0000.141,+0000.029,-0000.141,+0000.029,-0000.141,+0000.029,-0000.141,+0000.029,-0000.141,+0000.028,-0000.141,+0000.028,-0000.141,+0000.027,-0000.141,+0000.027,-0000.141,+0000.026,-0000.141,+0000.026,-0000.141,+0000.024,-0000.141,+0000.024,-0000.141,+0000.023,-0000.141,+0000.023,-0000.141,+0000.019,-0000.141,+0000.019,-0000.141,+0000.017,-0000.141,+0000.017,-0000.146,+0000.017,-0000.146,+0000.017,-0000.146,+0000.017,-0000.146,+0000.016,-0000.146,+0000.016,-0000.146,+0000.012,-0000.146,+0000.012,-0000.146,+0000.011,-0000.156,+0000.011,-0000.156,+0000.012,-0000.157,+0000.012,-0000.157,+0000.011,-0000.157,+0000.011,-0000.157,+0000.012,-0000.157,+0000.012,-0000.157,+0000.011,-0000.167,+0000.011,-0000.167,+0000.012,-0000.168,+0000.012,-0000.168,+0000.011,-0000.178,+0000.011,-0000.178,+0000.012,-0000.178,+0000.012,-0000.178,+0000.016,-0000.178,+0000.016,-0000.178,+0000.017,-0000.178,+0000.017,-0000.178,+0000.017,-0000.183,+0000.017,-0000.183,+0000.017,-0000.183,+0000.019,-0000.183,+0000.019,-0000.183,+0000.019,-0000.183,+0000.021,-0000.183,+0000.021,-0000.183,+0000.023,-0000.183,+0000.023,-0000.183,+0000.023,-0000.183,+0000.024,-0000.183,+0000.024,-0000.183,+0000.026,-0000.183,+0000.026,-0000.183,+0000.027,-0000.183,+0000.027,-0000.183,+0000.028,-0000.183,+0000.028" />
<polygon id="618" points="-0000.178,-0000.009,-0000.178,-0000.005,-0000.178,-0000.005,-0000.178,-0000.004,-0000.168,-0000.004,-0000.168,-0000.005,-0000.167,-0000.005,-0000.167,-0000.004,-0000.157,-0000.004,-0000.157,-0000.005,-0000.157,-0000.005,-0000.157,-0000.004,-0000.157,-0000.004,-0000.157,-0000.005,-0000.156,-0000.005,-0000.156,-0000.004,-0000.146,-0000.004,-0000.146,-0000.005,-0000.146,-0000.005,-0000.146,-0000.009,-0000.146,-0000.009,-0000.146,-0000.010,-0000.153,-0000.010,-0000.153,-0000.010,-0000.154,-0000.010,-0000.154,-0000.010,-0000.156,-0000.010,-0000.156,-0000.009,-0000.157,-0000.009,-0000.157,-0000.010,-0000.157,-0000.010,-0000.157,-0000.009,-0000.157,-0000.009,-0000.157,-0000.010,-0000.167,-0000.010,-0000.167,-0000.009,-0000.168,-0000.009,-0000.168,-0000.010,-0000.170,-0000.010,-0000.170,-0000.010,-0000.171,-0000.010,-0000.171,-0000.010,-0000.178,-0000.010,-0000.178,-0000.009" />
<polygon id="619" points="-0000.107,-0000.004,-0000.107,+0000.011,-0000.107,+0000.011,-0000.107,+0000.011,-0000.106,+0000.011,-0000.106,+0000.011,-0000.105,+0000.011,-0000.104,+0000.011,-0000.103,+0000.011,-0000.103,+0000.011,-0000.102,+0000.011,-0000.102,+0000.011,-0000.101,+0000.011,-0000.101,+0000.011,-0000.100,+0000.011,-0000.099,+0000.011,-0000.099,+0000.011,-0000.099,+0000.011,-0000.098,+0000.011,-0000.098,+0000.011,-0000.097,+0000.011,-0000.097,+0000.011,-0000.096,+0000.011,-0000.095,+0000.011,-0000.094,+0000.011,-0000.094,+0000.011,-0000.093,+0000.011,-0000.093,+0000.011,-0000.092,+0000.011,-0000.092,-0000.004,-0000.093,-0000.004,-0000.093,-0000.004,-0000.094,-0000.004,-0000.094,-0000.004,-0000.095,-0000.004,-0000.096,-0000.004,-0000.097,-0000.004,-0000.097,-0000.004,-0000.098,-0000.004,-0000.098,-0000.004,-0000.099,-0000.004,-0000.099,-0000.004,-0000.099,-0000.004,-0000.100,-0000.004,-0000.101,-0000.004,-0000.101,-0000.004,-0000.102,-0000.004,-0000.102,-0000.004,-0000.103,-0000.004,-0000.103,-0000.004,-0000.104,-0000.004,-0000.105,-0000.004,-0000.107,-0000.004" />
<polygon id="620" points="-0000.091,-0000.004,-0000.091,-0000.004,-0000.092,-0000.004,-0000.092,-0000.004,-0000.092,-0000.004,-0000.092,+0000.011,-0000.092,+0000.011,-0000.092,+0000.011,-0000.091,+0000.011,-0000.090,+0000.011,-0000.090,+0000.011,-0000.090,+0000.011,-0000.088,+0000.011,-0000.088,+0000.011,-0000.087,+0000.011,-0000.086,+0000.011,-0000.086,+0000.011,-0000.085,+0000.011,-0000.085,+0000.011,-0000.084,+0000.011,-0000.084,+0000.011,-0000.083,+0000.011,-0000.083,+0000.011,-0000.082,+0000.011,-0000.081,+0000.011,-0000.081,+0000.011,-0000.081,+0000.011,-0000.079,+0000.011,-0000.079,+0000.011,-0000.078,+0000.011,-0000.077,+0000.011,-0000.073,+0000.011,-0000.073,+0000.011,-0000.073,-0000.002,-0000.073,-0000.004,-0000.077,-0000.004,-0000.078,-0000.004,-0000.079,-0000.004,-0000.079,-0000.004,-0000.080,-0000.004,-0000.080,-0000.004,-0000.081,-0000.004,-0000.081,-0000.004,-0000.081,-0000.004,-0000.082,-0000.004,-0000.083,-0000.004,-0000.083,-0000.004,-0000.084,-0000.004,-0000.084,-0000.004,-0000.085,-0000.004,-0000.085,-0000.004,-0000.086,-0000.004,-0000.087,-0000.004,-0000.088,-0000.004,-0000.088,-0000.004,-0000.090,-0000.004,-0000.090,-0000.004,-0000.090,-0000.004" />
<polygon id="630" points="-0000.075,+0000.019,-0000.075,+0000.023,-0000.073,+0000.023,-0000.073,+0000.019" />
<polygon id="635" points="-0000.191,-0000.015,-0000.193,-0000.015,-0000.193,-0000.015,-0000.193,-0000.012,-0000.191,-0000.012" />
<polygon id="636" points="-0000.193,+0000.023,-0000.191,+0000.023,-0000.191,+0000.019,-0000.193,+0000.019,-0000.193,+0000.022" />
<polygon id="637" points="-0000.131,-0000.015,-0000.133,-0000.015,-0000.133,-0000.012,-0000.131,-0000.012,-0000.131,-0000.015" />
<polygon id="670" points="-0000.153,-0000.012,-0000.153,-0000.010,-0000.153,-0000.010,-0000.151,-0000.010,-0000.151,-0000.012" />

</svg>